<svg width="313" height="443" viewBox="0 0 313 443" fill="none" xmlns="http://www.w3.org/2000/svg">
<path d="M286.219 116.5V184.75H269.812V116.5H286.219Z" fill="#00E7D5"/>
<path d="M251.859 172.094V184.75H203.906V172.094H251.859ZM209.344 172.094V201.484H194.109L192.984 172.094H209.344ZM263.062 172.094L261.328 201.531H246.562V172.094H263.062ZM244.688 116.5V129.203H210.422V116.5H244.688ZM255.75 116.5V184.75H239.391V116.5H255.75ZM209.344 116.5H225.75L223.734 144.484C223.391 149.266 222.844 153.422 222.094 156.953C221.344 160.484 220.453 163.531 219.422 166.094C218.391 168.656 217.266 170.859 216.047 172.703C214.828 174.547 213.547 176.156 212.203 177.531C210.891 178.906 209.578 180.156 208.266 181.281C206.953 182.406 205.688 183.562 204.469 184.75H194.484V172.094H197.766C198.734 171.406 199.703 170.484 200.672 169.328C201.672 168.141 202.609 166.531 203.484 164.5C204.359 162.469 205.125 159.828 205.781 156.578C206.438 153.328 206.938 149.297 207.281 144.484L209.344 116.5Z" fill="#00E7D5"/>
<path d="M216.609 276.141H203.156C203.156 273.391 203.344 270.969 203.719 268.875C204.125 266.75 204.812 264.844 205.781 263.156C206.75 261.469 208.062 259.906 209.719 258.469C211.188 257.25 212.453 256.078 213.516 254.953C214.578 253.828 215.391 252.688 215.953 251.531C216.516 250.375 216.797 249.141 216.797 247.828C216.797 246.203 216.562 244.875 216.094 243.844C215.656 242.812 214.984 242.047 214.078 241.547C213.203 241.016 212.094 240.75 210.75 240.75C209.656 240.75 208.625 241.016 207.656 241.547C206.719 242.078 205.953 242.906 205.359 244.031C204.766 245.125 204.438 246.578 204.375 248.391H188.484C188.578 243.734 189.609 239.953 191.578 237.047C193.578 234.109 196.234 231.969 199.547 230.625C202.891 229.25 206.625 228.562 210.75 228.562C215.312 228.562 219.234 229.266 222.516 230.672C225.797 232.078 228.312 234.172 230.062 236.953C231.812 239.703 232.688 243.094 232.688 247.125C232.688 249.812 232.172 252.156 231.141 254.156C230.141 256.125 228.781 257.969 227.062 259.688C225.375 261.375 223.484 263.188 221.391 265.125C219.578 266.719 218.344 268.344 217.688 270C217.031 271.625 216.672 273.672 216.609 276.141ZM201.234 290.391C201.234 288.141 202.047 286.266 203.672 284.766C205.297 283.234 207.406 282.469 210 282.469C212.594 282.469 214.703 283.234 216.328 284.766C217.953 286.266 218.766 288.141 218.766 290.391C218.766 292.641 217.953 294.531 216.328 296.062C214.703 297.562 212.594 298.312 210 298.312C207.406 298.312 205.297 297.562 203.672 296.062C202.047 294.531 201.234 292.641 201.234 290.391Z" fill="white"/>
<g filter="url(#filter0_d_302_950)">
<path d="M147.774 297.903L147.774 0H92L92.0003 312.832C94.9465 338.221 117.297 389 183.129 389C248.96 389 273.139 338.221 277 312.832V146.557L191.648 215.586H220.311V297.903C219.397 309.481 210.68 332.026 183.129 329.589C155.577 327.152 148.079 307.449 147.774 297.903Z" fill="#867DB3"/>
<path d="M147.774 297.903L147.774 0H92L92.0003 312.832C94.9465 338.221 117.297 389 183.129 389C248.96 389 273.139 338.221 277 312.832V146.557L191.648 215.586H220.311V297.903C219.397 309.481 210.68 332.026 183.129 329.589C155.577 327.152 148.079 307.449 147.774 297.903Z" fill="url(#paint0_linear_302_950)"/>
</g>
<path d="M183.703 262.266V265.031C183.703 270.25 182.969 274.938 181.5 279.094C180.062 283.219 178.016 286.75 175.359 289.688C172.703 292.594 169.562 294.828 165.938 296.391C162.312 297.922 158.312 298.688 153.938 298.688C149.531 298.688 145.5 297.922 141.844 296.391C138.219 294.828 135.062 292.594 132.375 289.688C129.719 286.75 127.656 283.219 126.188 279.094C124.75 274.938 124.031 270.25 124.031 265.031V262.266C124.031 257.047 124.75 252.359 126.188 248.203C127.656 244.047 129.703 240.516 132.328 237.609C134.984 234.672 138.125 232.438 141.75 230.906C145.406 229.344 149.438 228.562 153.844 228.562C158.219 228.562 162.219 229.344 165.844 230.906C169.5 232.438 172.656 234.672 175.312 237.609C177.969 240.516 180.031 244.047 181.5 248.203C182.969 252.359 183.703 257.047 183.703 262.266ZM167.016 265.031V262.172C167.016 258.797 166.719 255.828 166.125 253.266C165.562 250.672 164.719 248.5 163.594 246.75C162.469 245 161.078 243.688 159.422 242.812C157.797 241.906 155.938 241.453 153.844 241.453C151.656 241.453 149.75 241.906 148.125 242.812C146.5 243.688 145.141 245 144.047 246.75C142.953 248.5 142.125 250.672 141.562 253.266C141.031 255.828 140.766 258.797 140.766 262.172V265.031C140.766 268.375 141.031 271.344 141.562 273.938C142.125 276.5 142.953 278.672 144.047 280.453C145.172 282.234 146.547 283.578 148.172 284.484C149.828 285.391 151.75 285.844 153.938 285.844C156.031 285.844 157.891 285.391 159.516 284.484C161.141 283.578 162.5 282.234 163.594 280.453C164.719 278.672 165.562 276.5 166.125 273.938C166.719 271.344 167.016 268.375 167.016 265.031Z" fill="white"/>
<path d="M99.75 229.5V297.75H83.2969V229.5H99.75ZM120.281 229.5V242.203H63.2344V229.5H120.281Z" fill="white"/>
<path d="M19.6875 229.5L30.8438 252.188L42 229.5H60.75L41.7188 263.344L61.2656 297.75H42.3281L30.8438 274.641L19.3594 297.75H0.375L19.9688 263.344L0.890625 229.5H19.6875Z" fill="white"/>
<path d="M179.672 172.094V184.75H131.719V172.094H179.672ZM137.156 172.094V201.484H121.922L120.797 172.094H137.156ZM190.875 172.094L189.141 201.531H174.375V172.094H190.875ZM172.5 116.5V129.203H138.234V116.5H172.5ZM183.562 116.5V184.75H167.203V116.5H183.562ZM137.156 116.5H153.562L151.547 144.484C151.203 149.266 150.656 153.422 149.906 156.953C149.156 160.484 148.266 163.531 147.234 166.094C146.203 168.656 145.078 170.859 143.859 172.703C142.641 174.547 141.359 176.156 140.016 177.531C138.703 178.906 137.391 180.156 136.078 181.281C134.766 182.406 133.5 183.562 132.281 184.75H122.297V172.094H125.578C126.547 171.406 127.516 170.484 128.484 169.328C129.484 168.141 130.422 166.531 131.297 164.5C132.172 162.469 132.938 159.828 133.594 156.578C134.25 153.328 134.75 149.297 135.094 144.484L137.156 116.5Z" fill="#00E7D5"/>
<path d="M90 159.016L106.125 116.5H123.516L100.5 170.641C99.625 172.641 98.6094 174.547 97.4531 176.359C96.3281 178.172 94.9844 179.781 93.4219 181.188C91.8906 182.594 90.0781 183.703 87.9844 184.516C85.8906 185.328 83.4375 185.734 80.625 185.734C79.9375 185.734 79.0938 185.719 78.0938 185.688C77.125 185.688 76.2812 185.672 75.5625 185.641L75.2812 172.891C75.6875 172.984 76.25 173.047 76.9688 173.078C77.6875 173.078 78.2031 173.078 78.5156 173.078C80.3906 173.078 81.875 172.859 82.9688 172.422C84.0625 171.953 84.9219 171.266 85.5469 170.359C86.2031 169.422 86.7656 168.234 87.2344 166.797L90 159.016ZM80.8594 116.5L94.8281 146.125L100.172 165.062H88.3594L63.375 116.5H80.8594Z" fill="#00E7D5"/>
<path d="M44.2031 161.641H60.6094C60.3906 166.391 59.1094 170.578 56.7656 174.203C54.4219 177.828 51.1719 180.656 47.0156 182.688C42.8906 184.688 38.0156 185.688 32.3906 185.688C27.8281 185.688 23.75 184.922 20.1562 183.391C16.5938 181.859 13.5625 179.656 11.0625 176.781C8.59375 173.906 6.70312 170.422 5.39062 166.328C4.10938 162.234 3.46875 157.625 3.46875 152.5V148.797C3.46875 143.672 4.14062 139.062 5.48438 134.969C6.85938 130.844 8.79688 127.344 11.2969 124.469C13.8281 121.562 16.8594 119.344 20.3906 117.812C23.9219 116.281 27.8438 115.516 32.1562 115.516C38.0938 115.516 43.1094 116.578 47.2031 118.703C51.2969 120.828 54.4688 123.75 56.7188 127.469C58.9688 131.156 60.2969 135.359 60.7031 140.078H44.2969C44.2344 137.516 43.7969 135.375 42.9844 133.656C42.1719 131.906 40.8906 130.594 39.1406 129.719C37.3906 128.844 35.0625 128.406 32.1562 128.406C30.125 128.406 28.3594 128.781 26.8594 129.531C25.3594 130.281 24.1094 131.469 23.1094 133.094C22.1094 134.719 21.3594 136.828 20.8594 139.422C20.3906 141.984 20.1562 145.078 20.1562 148.703V152.5C20.1562 156.125 20.375 159.219 20.8125 161.781C21.25 164.344 21.9531 166.438 22.9219 168.062C23.8906 169.688 25.1406 170.891 26.6719 171.672C28.2344 172.422 30.1406 172.797 32.3906 172.797C34.8906 172.797 37 172.406 38.7188 171.625C40.4375 170.812 41.7656 169.594 42.7031 167.969C43.6406 166.312 44.1406 164.203 44.2031 161.641Z" fill="#00E7D5"/>
<path d="M34.3125 17.8438L17.6719 71.75H0L25.0781 3.5H36.2812L34.3125 17.8438ZM48.0938 71.75L31.4062 17.8438L29.25 3.5H40.5938L65.8125 71.75H48.0938ZM47.4375 46.2969V59H12.4219V46.2969H47.4375Z" fill="white"/>
<defs>
<filter id="filter0_d_302_950" x="80.6" y="0" width="231.8" height="442.4" filterUnits="userSpaceOnUse" color-interpolation-filters="sRGB">
<feFlood flood-opacity="0" result="BackgroundImageFix"/>
<feColorMatrix in="SourceAlpha" type="matrix" values="0 0 0 0 0 0 0 0 0 0 0 0 0 0 0 0 0 0 127 0" result="hardAlpha"/>
<feOffset dx="12" dy="30"/>
<feGaussianBlur stdDeviation="11.7"/>
<feComposite in2="hardAlpha" operator="out"/>
<feColorMatrix type="matrix" values="0 0 0 0 0.252254 0 0 0 0 0.222731 0 0 0 0 0.393055 0 0 0 0.4 0"/>
<feBlend mode="normal" in2="BackgroundImageFix" result="effect1_dropShadow_302_950"/>
<feBlend mode="normal" in="SourceGraphic" in2="effect1_dropShadow_302_950" result="shape"/>
</filter>
<linearGradient id="paint0_linear_302_950" x1="184.5" y1="-0.500643" x2="184.5" y2="389.001" gradientUnits="userSpaceOnUse">
<stop stop-color="#4E4F93"/>
<stop offset="1" stop-color="#564894" stop-opacity="0"/>
</linearGradient>
</defs>
</svg>
