<svg width="233" height="873" viewBox="0 0 233 873" fill="none" xmlns="http://www.w3.org/2000/svg">
<g filter="url(#filter0_d_101_977)">
<path d="M67.7743 728.5L67.7743 0H12L12.0003 743.429C14.9465 768.818 37.2966 819.597 103.129 819.597C168.96 819.597 193.139 768.818 197 743.429V577.154L111.648 646.183H140.311V728.5C139.397 740.078 130.68 762.623 103.129 760.186C75.5766 757.749 68.0791 738.046 67.7743 728.5Z" fill="#567FA9"/>
<path d="M67.7743 728.5L67.7743 0H12L12.0003 743.429C14.9465 768.818 37.2966 819.597 103.129 819.597C168.96 819.597 193.139 768.818 197 743.429V577.154L111.648 646.183H140.311V728.5C139.397 740.078 130.68 762.623 103.129 760.186C75.5766 757.749 68.0791 738.046 67.7743 728.5Z" fill="url(#paint0_linear_101_977)"/>
</g>
<defs>
<filter id="filter0_d_101_977" x="0.6" y="0" width="231.8" height="872.997" filterUnits="userSpaceOnUse" color-interpolation-filters="sRGB">
<feFlood flood-opacity="0" result="BackgroundImageFix"/>
<feColorMatrix in="SourceAlpha" type="matrix" values="0 0 0 0 0 0 0 0 0 0 0 0 0 0 0 0 0 0 127 0" result="hardAlpha"/>
<feOffset dx="12" dy="30"/>
<feGaussianBlur stdDeviation="11.7"/>
<feComposite in2="hardAlpha" operator="out"/>
<feColorMatrix type="matrix" values="0 0 0 0 0.252254 0 0 0 0 0.222731 0 0 0 0 0.393055 0 0 0 0.4 0"/>
<feBlend mode="normal" in2="BackgroundImageFix" result="effect1_dropShadow_101_977"/>
<feBlend mode="normal" in="SourceGraphic" in2="effect1_dropShadow_101_977" result="shape"/>
</filter>
<linearGradient id="paint0_linear_101_977" x1="104.5" y1="402.499" x2="104.5" y2="820" gradientUnits="userSpaceOnUse">
<stop stop-color="#534B95"/>
<stop offset="0.275435" stop-color="#534B95" stop-opacity="0.97"/>
<stop offset="1" stop-color="#564894" stop-opacity="0"/>
</linearGradient>
</defs>
</svg>
