<svg width="233" height="470" viewBox="0 0 233 470" fill="none" xmlns="http://www.w3.org/2000/svg">
<g filter="url(#filter0_d_34_791)">
<path d="M67.7743 325.5L67.7743 0H12L12.0003 340.429C14.9465 365.818 37.2966 416.597 103.129 416.597C168.96 416.597 193.139 365.818 197 340.429V174.154L111.648 243.183H140.311V325.5C139.397 337.078 130.68 359.623 103.129 357.186C75.5766 354.749 68.0791 335.046 67.7743 325.5Z" fill="#567FA9"/>
<path d="M67.7743 325.5L67.7743 0H12L12.0003 340.429C14.9465 365.818 37.2966 416.597 103.129 416.597C168.96 416.597 193.139 365.818 197 340.429V174.154L111.648 243.183H140.311V325.5C139.397 337.078 130.68 359.623 103.129 357.186C75.5766 354.749 68.0791 335.046 67.7743 325.5Z" fill="url(#paint0_linear_34_791)"/>
</g>
<defs>
<filter id="filter0_d_34_791" x="0.6" y="0" width="231.8" height="469.997" filterUnits="userSpaceOnUse" color-interpolation-filters="sRGB">
<feFlood flood-opacity="0" result="BackgroundImageFix"/>
<feColorMatrix in="SourceAlpha" type="matrix" values="0 0 0 0 0 0 0 0 0 0 0 0 0 0 0 0 0 0 127 0" result="hardAlpha"/>
<feOffset dx="12" dy="30"/>
<feGaussianBlur stdDeviation="11.7"/>
<feComposite in2="hardAlpha" operator="out"/>
<feColorMatrix type="matrix" values="0 0 0 0 0.252254 0 0 0 0 0.222731 0 0 0 0 0.393055 0 0 0 0.4 0"/>
<feBlend mode="normal" in2="BackgroundImageFix" result="effect1_dropShadow_34_791"/>
<feBlend mode="normal" in="SourceGraphic" in2="effect1_dropShadow_34_791" result="shape"/>
</filter>
<linearGradient id="paint0_linear_34_791" x1="104.5" y1="-0.500644" x2="104.5" y2="417" gradientUnits="userSpaceOnUse">
<stop stop-color="#534B95"/>
<stop offset="0.275435" stop-color="#534B95" stop-opacity="0.97"/>
<stop offset="1" stop-color="#564894" stop-opacity="0"/>
</linearGradient>
</defs>
</svg>
