<svg width="123" height="123" viewBox="0 0 123 123" fill="none" xmlns="http://www.w3.org/2000/svg">
<g filter="url(#filter0_d_87_272)">
<circle cx="56" cy="57" r="50" transform="rotate(-180 56 57)" fill="url(#paint0_linear_87_272)" shape-rendering="crispEdges"/>
</g>
<path d="M55.5475 60.4035H55.7182C59.3744 60.501 62.2994 63.4747 62.2994 67.131C62.2994 70.251 60.1788 72.8591 57.3025 73.6391V76.3691C57.3025 77.3441 56.5225 78.1241 55.5475 78.1241C54.5725 78.1241 53.7925 77.3441 53.7925 76.3691V73.6391C52.3603 73.254 51.0948 72.4079 50.1916 71.2315C49.2884 70.0552 48.7978 68.6141 48.7957 67.131C48.7957 66.156 49.5757 65.376 50.5507 65.376C51.5257 65.376 52.3057 66.156 52.3057 67.131C52.3057 68.9347 53.7438 70.3728 55.5232 70.3728C57.3025 70.3728 58.765 68.9103 58.765 67.131C58.765 65.3516 57.3025 63.8891 55.5232 63.8891H55.3525C53.599 63.8415 51.9332 63.1121 50.7088 61.856C49.4845 60.5998 48.7982 58.9157 48.7957 57.1616C48.7957 54.0416 50.9163 51.4335 53.7925 50.6535V47.9235C53.7925 46.9485 54.5725 46.1685 55.5475 46.1685C56.5225 46.1685 57.3025 46.9485 57.3025 47.9235V50.6535C60.1788 51.4335 62.2994 54.0416 62.2994 57.1616C62.2994 58.1366 61.5194 58.9166 60.5444 58.9166C59.5694 58.9166 58.7894 58.1366 58.7894 57.1616C58.7894 55.3822 57.3269 53.9197 55.5475 53.9197C53.7682 53.9197 52.3057 55.3822 52.3057 57.1616C52.3057 58.941 53.7682 60.4035 55.5475 60.4035Z" fill="#EFEFEF"/>
<path d="M42.6092 25.6812L49.4001 33.6275L48.6664 34.4465C34.6898 37.5811 24.25 50.0635 24.25 64.9859C24.25 78.1045 34.897 88.7515 48.0156 88.7515H63.055C76.1736 88.7515 86.8206 78.107 86.8206 64.9883C86.845 50.0635 76.4052 37.5811 62.4286 34.4465C62.4854 33.9314 62.3923 33.4109 62.1604 32.9474L67.9373 26.3345L68.3102 25.7592C68.7457 24.8094 68.8571 23.7428 68.6273 22.7235C68.3975 21.7042 67.8392 20.7886 67.0382 20.1175C66.2373 19.4465 65.2381 19.0572 64.1943 19.0094C63.1505 18.9616 62.1199 19.2581 61.261 19.8532L59.2062 17.4157C58.7452 16.8998 58.1808 16.4869 57.5496 16.2038C56.9184 15.9208 56.2347 15.7739 55.5429 15.7727C54.8511 15.7716 54.1669 15.9162 53.5348 16.1972C52.9027 16.4782 52.3368 16.8892 51.8742 17.4035L49.7219 19.8068C48.8652 19.1994 47.8323 18.8911 46.7828 18.9297C45.7333 18.9683 44.7258 19.3516 43.9161 20.0204C43.1064 20.6891 42.5395 21.6061 42.3033 22.6293C42.0671 23.6526 42.1746 24.7252 42.6092 25.6812ZM51.8693 29.0572L47.7353 24.2797C48.6957 24.7424 49.7824 24.8738 50.8255 24.6533C51.8685 24.4328 52.8091 23.8728 53.5 23.0609L55.45 20.5308L57.6145 23.095C58.2894 23.8799 59.1998 24.4256 60.21 24.6509C61.2203 24.8763 62.2763 24.7691 63.2207 24.3455L59.1062 29.0572H51.8693ZM29.125 64.9859C29.125 50.3902 40.9517 38.5634 55.5475 38.5634C70.1432 38.5634 81.97 50.3901 81.9456 64.981V64.9859C81.9437 69.9954 79.9528 74.7992 76.4105 78.3414C72.8683 81.8837 68.0645 83.8746 63.055 83.8765H48.0156C43.0061 83.8746 38.2023 81.8837 34.6601 78.3414C31.1178 74.7992 29.1269 69.9954 29.125 64.9859Z" fill="#EFEFEF"/>
<defs>
<filter id="filter0_d_87_272" x="0.53125" y="0.75" width="121.875" height="121.875" filterUnits="userSpaceOnUse" color-interpolation-filters="sRGB">
<feFlood flood-opacity="0" result="BackgroundImageFix"/>
<feColorMatrix in="SourceAlpha" type="matrix" values="0 0 0 0 0 0 0 0 0 0 0 0 0 0 0 0 0 0 127 0" result="hardAlpha"/>
<feOffset dx="5.46875" dy="4.6875"/>
<feGaussianBlur stdDeviation="5.46875"/>
<feComposite in2="hardAlpha" operator="out"/>
<feColorMatrix type="matrix" values="0 0 0 0 0 0 0 0 0 0 0 0 0 0 0 0 0 0 0.15 0"/>
<feBlend mode="normal" in2="BackgroundImageFix" result="effect1_dropShadow_87_272"/>
<feBlend mode="normal" in="SourceGraphic" in2="effect1_dropShadow_87_272" result="shape"/>
</filter>
<linearGradient id="paint0_linear_87_272" x1="56" y1="7.00001" x2="56" y2="107" gradientUnits="userSpaceOnUse">
<stop stop-color="#567AA7"/>
<stop offset="1" stop-color="#346696" stop-opacity="0"/>
</linearGradient>
</defs>
</svg>
