<svg width="24" height="24" viewBox="0 0 24 24" fill="none" xmlns="http://www.w3.org/2000/svg">
<path d="M21.7 20.28L12.1 10.68L13.5 9.26L14.22 9.97C14.3125 10.0627 14.4224 10.1362 14.5434 10.1864C14.6643 10.2366 14.794 10.2624 14.925 10.2624C15.056 10.2624 15.1857 10.2366 15.3066 10.1864C15.4276 10.1362 15.5375 10.0627 15.63 9.97L16.34 9.26C16.4327 9.16748 16.5063 9.05759 16.5564 8.93662C16.6066 8.81565 16.6324 8.68597 16.6324 8.555C16.6324 8.42403 16.6066 8.29435 16.5564 8.17337C16.5063 8.0524 16.4327 7.94251 16.34 7.85L10.68 2.19C10.5875 2.09729 10.4776 2.02375 10.3566 1.97356C10.2357 1.92338 10.106 1.89755 9.975 1.89755C9.84403 1.89755 9.71435 1.92338 9.59338 1.97356C9.4724 2.02375 9.36251 2.09729 9.27 2.19L8.56 2.9C8.17 3.29 8.17 3.92 8.56 4.31L9.27 5L7.85 6.43C7.75749 6.33729 7.6476 6.26375 7.52662 6.21356C7.40565 6.16338 7.27597 6.13755 7.145 6.13755C7.01403 6.13755 6.88435 6.16338 6.76338 6.21356C6.6424 6.26375 6.53251 6.33729 6.44 6.43C6.05 6.82 6.05 7.46 6.44 7.85L5.03 9.26L4.32 8.55C3.93 8.16 3.29 8.16 2.9 8.55L2.2 9.26C1.81 9.65 1.81 10.29 2.2 10.68L7.85 16.33C8.24 16.72 8.88 16.72 9.27 16.33L9.97 15.63C10.065 15.5377 10.1404 15.4274 10.192 15.3054C10.2435 15.1834 10.2701 15.0524 10.2701 14.92C10.2701 14.7876 10.2435 14.6565 10.192 14.5346C10.1404 14.4126 10.065 14.3023 9.97 14.21L9.27 13.5L10.68 12.09L20.29 21.7C20.3825 21.7927 20.4924 21.8662 20.6134 21.9164C20.7343 21.9666 20.864 21.9924 20.995 21.9924C21.126 21.9924 21.2557 21.9666 21.3766 21.9164C21.4976 21.8662 21.6075 21.7927 21.7 21.7C22.09 21.31 22.09 20.67 21.7 20.28ZM4 19C3.46957 19 2.96086 19.2107 2.58579 19.5858C2.21071 19.9609 2 20.4696 2 21V22H12V21C12 20.4696 11.7893 19.9609 11.4142 19.5858C11.0391 19.2107 10.5304 19 10 19H4Z" fill="#00E7D5"/>
</svg>
