<svg width="16" height="16" viewBox="0 0 16 16" fill="none" xmlns="http://www.w3.org/2000/svg">
<path d="M13.9999 3.33333L1.99994 3.33332C1.87845 3.3337 1.75936 3.36721 1.65549 3.43024C1.55163 3.49327 1.46692 3.58343 1.41048 3.69103C1.35404 3.79862 1.32802 3.91956 1.33521 4.04085C1.3424 4.16213 1.38253 4.27915 1.45128 4.37932L7.45128 13.046C7.69994 13.4053 8.29861 13.4053 8.54794 13.046L14.5479 4.37932C14.6174 4.27936 14.6581 4.16228 14.6657 4.0408C14.6733 3.91931 14.6474 3.79807 14.5909 3.69025C14.5344 3.58243 14.4495 3.49216 14.3453 3.42923C14.2411 3.3663 14.1217 3.33313 13.9999 3.33333Z" fill="#00E7D5"/>
</svg>
